<?xml version="1.0" standalone="no"?>
<!DOCTYPE svg PUBLIC "-//W3C//DTD SVG 20010904//EN"
 "http://www.w3.org/TR/2001/REC-SVG-20010904/DTD/svg10.dtd">
<svg version="1.0" xmlns="http://www.w3.org/2000/svg"
 width="840.000000pt" height="971.000000pt" viewBox="0 0 840.000000 971.000000"
 preserveAspectRatio="xMidYMid meet">
<metadata>
Created by potrace 1.16, written by Peter Selinger 2001-2019
</metadata>
<g transform="translate(0.000000,971.000000) scale(0.100000,-0.100000)"
fill="#000000" stroke="none">
<path d="M3785 9584 c-1264 -124 -2406 -816 -3100 -1879 -374 -572 -591 -1187
-667 -1890 -17 -159 -17 -662 0 -825 88 -829 393 -1574 909 -2221 138 -173
461 -496 631 -631 669 -532 1412 -834 2252 -914 230 -22 712 -14 925 15 513
70 931 200 1380 429 1673 856 2569 2714 2200 4567 -83 415 -234 830 -435 1192
-678 1225 -1897 2026 -3284 2158 -197 19 -616 18 -811 -1z m-105 -653 l0 -418
-52 -7 c-107 -14 -357 -68 -498 -107 -499 -140 -893 -371 -1178 -690 -309
-344 -462 -744 -462 -1202 0 -367 83 -668 252 -914 105 -154 356 -382 553
-503 285 -176 783 -332 1585 -500 135 -28 326 -71 425 -95 390 -96 525 -158
593 -273 23 -40 27 -58 27 -122 0 -51 -6 -85 -17 -106 -60 -111 -207 -175
-467 -205 -142 -16 -617 -7 -776 15 -504 70 -1037 236 -1463 456 l-133 69 -20
-42 c-11 -23 -163 -359 -339 -747 -280 -618 -318 -706 -304 -717 39 -29 321
-166 439 -214 478 -191 1089 -329 1635 -369 85 -7 165 -14 178 -16 l22 -4 0
-381 0 -381 -57 6 c-32 4 -135 23 -229 41 -973 196 -1858 773 -2439 1590 -336
474 -574 1035 -674 1590 -48 268 -56 375 -56 725 1 350 8 444 56 710 218 1213
1006 2270 2114 2835 262 134 542 239 823 310 144 36 383 82 435 84 l27 1 0
-419z m1475 338 c767 -185 1504 -631 2022 -1221 552 -629 876 -1357 980 -2198
25 -204 25 -686 0 -890 -98 -797 -387 -1475 -893 -2098 -117 -144 -410 -433
-564 -556 -380 -304 -811 -538 -1265 -688 -105 -34 -367 -103 -462 -121 l-33
-7 0 388 0 388 170 37 c306 67 508 136 755 257 257 125 449 263 630 451 225
234 366 473 449 761 77 268 87 609 24 897 -56 264 -159 458 -342 648 -402 419
-806 587 -1966 819 -455 91 -646 136 -805 191 -123 43 -174 72 -224 129 -71
80 -80 196 -23 297 57 103 187 170 400 209 96 17 158 21 352 21 129 1 280 -5
335 -11 441 -53 871 -179 1293 -378 64 -30 119 -51 123 -47 8 8 618 1436 626
1465 4 13 -20 29 -104 72 -424 212 -929 355 -1502 426 -91 11 -171 20 -178 20
-10 0 -13 76 -13 394 l0 393 28 -4 c15 -3 99 -22 187 -44z"/>
</g>
</svg>
